<?xml version="1.0" standalone="no"?>
<!DOCTYPE svg PUBLIC "-//W3C//DTD SVG 20010904//EN"
 "http://www.w3.org/TR/2001/REC-SVG-20010904/DTD/svg10.dtd">
<svg version="1.0" xmlns="http://www.w3.org/2000/svg"
 width="225.000000pt" height="225.000000pt" viewBox="0 0 225.000000 225.000000"
 preserveAspectRatio="xMidYMid meet">
<metadata>
Created by potrace 1.11, written by Peter Selinger 2001-2013
</metadata>
<g transform="translate(0.000000,225.000000) scale(0.100000,-0.100000)"
fill="#000000" stroke="none">
<path d="M671 2236 c-45 -25 -50 -50 -51 -228 l0 -167 -281 -3 -281 -3 -29
-33 -29 -32 0 -846 c0 -918 -2 -886 55 -912 20 -9 283 -12 1076 -12 l1051 0
34 34 34 34 0 851 0 851 -29 32 -29 33 -281 3 -281 3 0 179 0 178 -31 26 -31
26 -436 0 c-344 -1 -442 -4 -461 -14z m759 -296 l0 -100 -300 0 -300 0 0 100
0 100 300 0 300 0 0 -100z m610 -535 c0 -212 -2 -239 -21 -290 -24 -65 -87
-132 -156 -166 -45 -22 -62 -24 -240 -27 l-193 -4 0 57 c0 73 -22 119 -66 140
-29 14 -68 16 -259 13 l-225 -3 -31 -31 c-28 -28 -32 -40 -37 -104 l-5 -72
-186 4 c-213 3 -244 12 -326 94 -77 77 -85 115 -85 389 l0 235 915 0 915 0 0
-235z m-810 -590 l0 -105 -105 0 -105 0 0 105 0 105 105 0 105 0 0 -105z
m-885 -66 c53 -19 86 -23 266 -27 l207 -4 4 -69 c3 -62 7 -73 36 -102 l32 -32
224 -3 c180 -3 230 0 259 11 51 22 68 54 69 131 l1 66 181 0 c207 0 275 12
373 64 l63 34 0 -304 0 -304 -925 0 -925 0 0 305 0 305 38 -25 c20 -13 64 -34
97 -46z"/>
</g>
</svg>
